<svg xmlns="http://www.w3.org/2000/svg" viewBox="0 0 32 32" fill="none" role="img" aria-label="Seyf">
  <defs>
    <linearGradient id="bg" x1="4" y1="4" x2="28" y2="28" gradientUnits="userSpaceOnUse">
      <stop stop-color="#0d3531"/>
      <stop offset="1" stop-color="#1b6155"/>
    </linearGradient>
  </defs>
  <rect width="32" height="32" rx="9" fill="url(#bg)"/>
  <path fill="#e8f5f1" fill-rule="evenodd" d="M9.2 22.6c0-2.1 1.4-3.6 3.9-4.4l3.6-1.2c1.2-.4 1.8-.9 1.8-1.7 0-.8-.7-1.3-1.9-1.3-1.4 0-2.4.6-2.7 1.8H8.6c.5-3 3.2-5 6.9-5 3.9 0 6.5 2 6.5 5.1 0 2.1-1.2 3.5-3.4 4.3l-3.8 1.3c-1.3.4-1.8.9-1.8 1.6 0 .9.8 1.4 2.2 1.4 1.6 0 2.8-.7 3.1-2h4.2c-.4 3.4-3.4 5.5-7.4 5.5-4.3 0-7.1-2.1-7.1-5.4Z"/>
</svg>
